<svg xmlns="http://www.w3.org/2000/svg" viewBox="0 0 105.07 34.36"><defs><style>.cls-1{fill:#fff;}</style></defs><path class="cls-1" d="M53,11.54A3.88,3.88,0,0,0,58.13,9.7a3.8,3.8,0,1,0-6.78-3.43h0A3.88,3.88,0,0,0,53,11.53Z"/><path class="cls-1" d="M103.62,28.64c-.53.93-.8,2.53-2.93,2.53-1.33,0-.13-2.93-.13-2.93L102,23l2.19-8H98.83l-.4,1.73s-1.07-2.53-6.26-2.53c-2.57,0-8.49,1.36-11.69,5.19H77.92c2.19-7.86-.34-8.4-1.4-8.4a4.17,4.17,0,0,0-4.06,3.2c-.87,3.1,2.26,6.53,2.26,6.53-.53,2.39-3.06,9.45-7.46,9.45-3.33,0-1.73-4.92-1.73-4.92L70.33,15H64.46L59.4,24.77c-.66,1.87-2.93,5.6-6,5.73-3.59.16-1.73-5.73-1.73-5.73l3.86-9.72H50.21a70.76,70.76,0,0,0-3.59,8.52,9.19,9.19,0,0,1-8.26,6.13c-5.26,0-7.59-7.06-7.59-7.06,9.19,0,11.45-10,11.45-10S46.15,0,24.51,0C4.13,0,0,8.92,0,12.52S2.67,20,6.66,20s5.06-2.53,5.06-2.53-7.19,1.2-7.19-3.86c0-9.19,16.78-12,20.11-12a20.12,20.12,0,0,1,5.46.66S23.31,3.6,21.44,8.39C20,12.18,18.78,18.91,16.65,23s-5.86,8.13-9.86,8.13S3.2,28.77,3.2,27.7s2.13-3.19,2.13-3.19.66-1.2-.93-.67S.53,25,.53,28.77s3.6,5.59,8.66,5.59S21.18,30.9,23.31,24c.12-.39.24-.8.36-1.21C24.3,25.33,27.06,34,35.56,34a12.39,12.39,0,0,0,10.52-5.5S44,34,51.15,34c6.12,0,9.05-6,9.05-6s.27,6,5.73,6,10.32-6.9,11.79-13.16H79.5a8.8,8.8,0,0,0-1.18,4.48c0,8.39,7.59,8.52,9.45,8.52s6-1.07,7.59-3.33a4.44,4.44,0,0,0,4.4,3.2c4.4,0,4.66-3.07,5.19-4.53S104.16,27.7,103.62,28.64ZM24.41,20c1.67-6.58,3.29-14.29,6.36-15.6C34.5,2.8,36.45,6.75,35.7,10,34.78,13.9,32.85,19.72,24.41,20Zm70.87,6.41c-2,3.45-5.54,5.14-7.88,3.77s-2.62-5.27-.61-8.72,5.54-5.13,7.89-3.76A4.54,4.54,0,0,1,96.55,23a9.75,9.75,0,0,1-1.27,3.38Z"/></svg>